<svg width="27" height="20" viewBox="0 0 27 20" fill="none" xmlns="http://www.w3.org/2000/svg">
<path d="M2.776 1.11011C1.858 1.11011 1.11005 1.85812 1.11005 2.77612V17.2209C1.11005 18.1389 1.858 18.887 2.776 18.887H23.887C24.806 18.887 25.554 18.1389 25.554 17.2209V2.77612C25.554 1.85812 24.806 1.11011 23.887 1.11011H2.776ZM23.888 19.999H2.77704C2.04104 19.998 1.33503 19.7051 0.814026 19.1851C0.293026 18.6651 0.001 17.9579 0 17.2219V2.7771C0 1.2471 1.24704 0 2.77704 0H23.888C25.419 0 26.666 1.2471 26.666 2.7771V17.2219C26.666 18.7529 25.419 19.999 23.888 19.999Z" fill="#3A3490"/>
<path d="M22.7761 15.5552H16.1091C15.9621 15.5552 15.8211 15.4963 15.7161 15.3923C15.6121 15.2883 15.5531 15.1473 15.5531 14.9993C15.5531 14.8513 15.6121 14.7102 15.7161 14.6062C15.8201 14.5022 15.9611 14.4434 16.1091 14.4434H22.7761C22.9231 14.4434 23.0641 14.5022 23.1691 14.6062C23.2731 14.7102 23.3321 14.8513 23.3321 14.9993C23.3321 15.1473 23.2731 15.2883 23.1691 15.3923C23.0641 15.4963 22.9241 15.5552 22.7761 15.5552ZM22.7761 11.1104H16.1091C15.9621 11.1104 15.8211 11.0513 15.7161 10.9473C15.6111 10.8433 15.5531 10.7022 15.5531 10.5542C15.5531 10.4062 15.6121 10.2654 15.7161 10.1614C15.8201 10.0574 15.9611 9.99829 16.1091 9.99829H22.7761C22.9231 9.99829 23.0641 10.0574 23.1691 10.1614C23.2731 10.2654 23.3321 10.4062 23.3321 10.5542C23.3321 10.7022 23.2731 10.8423 23.1691 10.9473C23.0651 11.0523 22.9241 11.1104 22.7761 11.1104ZM22.7761 6.66626H16.1091C15.9621 6.66626 15.8211 6.60717 15.7161 6.50317C15.6111 6.39917 15.5531 6.25835 15.5531 6.11035C15.5531 5.96235 15.6121 5.82129 15.7161 5.71729C15.8201 5.61329 15.9611 5.5542 16.1091 5.5542H22.7761C22.9231 5.5542 23.0641 5.61329 23.1691 5.71729C23.2731 5.82129 23.3321 5.96235 23.3321 6.11035C23.3321 6.25835 23.2731 6.39817 23.1691 6.50317C23.0651 6.60817 22.9241 6.66626 22.7761 6.66626ZM12.7761 15.5552C12.6291 15.5552 12.4871 15.4963 12.3831 15.3923C12.2791 15.2883 12.2201 15.1473 12.2201 14.9993V13.8882C12.2201 12.9692 11.4721 12.2222 10.5531 12.2222H6.10907C5.19007 12.2222 4.44208 12.9692 4.44208 13.8882V14.9993C4.44208 15.1463 4.38409 15.2883 4.28009 15.3923C4.17609 15.4963 4.03408 15.5552 3.88708 15.5552C3.74008 15.5552 3.5981 15.4963 3.4931 15.3923C3.3891 15.2883 3.33105 15.1473 3.33105 14.9993V13.8882C3.33105 12.3572 4.57709 11.1113 6.10809 11.1113H10.5521C12.0831 11.1113 13.3301 12.3572 13.3301 13.8882V14.9993C13.3301 15.1463 13.2711 15.2883 13.1671 15.3923C13.0641 15.4963 12.9241 15.5552 12.7761 15.5552ZM8.33209 5.55518C7.41309 5.55518 6.6651 6.30317 6.6651 7.22217C6.6651 8.14017 7.41309 8.88818 8.33209 8.88818C9.25109 8.88818 9.99811 8.14017 9.99811 7.22217C9.99811 6.30317 9.25109 5.55518 8.33209 5.55518ZM8.33209 9.99927C6.80109 9.99927 5.55408 8.75317 5.55408 7.22217C5.55408 5.69117 6.80109 4.44434 8.33209 4.44434C9.86309 4.44434 11.1091 5.69117 11.1091 7.22217C11.1091 8.75317 9.86309 9.99927 8.33209 9.99927Z" fill="#3A3490"/>
</svg>
