<svg width="20" height="26" viewBox="0 0 20 26" fill="none" xmlns="http://www.w3.org/2000/svg">
<path d="M1.03296 24.967V1.03101H14.4969V3.71313C14.4969 3.99813 14.7279 4.22998 15.0129 4.22998H18.1899V24.967H1.03296ZM17.3209 3.19604H15.5289V1.64502L17.3209 3.19604ZM19.2219 3.7019C19.2219 3.6939 19.221 3.68593 19.22 3.67993C19.217 3.61093 19.1989 3.54198 19.1689 3.47998C19.1389 3.41798 19.0959 3.36314 19.0439 3.31714L15.369 0.126953C15.275 0.0449531 15.155 0 15.031 0H0.515991C0.230991 0 0 0.231113 0 0.516113V25.4851C0 25.7701 0.229991 26.001 0.515991 26.001H18.704C18.989 26.001 19.2209 25.7711 19.2209 25.4851V3.70801C19.2219 3.70501 19.2219 3.7039 19.2219 3.7019Z" fill="#3A3490"/>
<path d="M15.7008 21.928H3.52087C3.23587 21.928 3.00391 22.1591 3.00391 22.4451C3.00391 22.7311 3.23487 22.9609 3.52087 22.9609H15.7008C15.9858 22.9609 16.2179 22.7311 16.2179 22.4451C16.2179 22.1591 15.9858 21.928 15.7008 21.928ZM15.7008 18.728H3.52087C3.23587 18.728 3.00391 18.9591 3.00391 19.2451C3.00391 19.5311 3.23487 19.762 3.52087 19.762H15.7008C15.9858 19.762 16.2179 19.5311 16.2179 19.2451C16.2179 18.9591 15.9858 18.728 15.7008 18.728ZM15.7008 15.5281H3.52087C3.23587 15.5281 3.00391 15.7579 3.00391 16.0439C3.00391 16.3299 3.23487 16.561 3.52087 16.561H15.7008C15.9858 16.561 16.2179 16.3299 16.2179 16.0439C16.2179 15.7579 15.9858 15.5281 15.7008 15.5281ZM5.77991 9.104L9.77185 13.21C9.81985 13.26 9.8768 13.2989 9.9408 13.3259C10.0038 13.3519 10.0728 13.367 10.1418 13.366C10.2718 13.366 10.4019 13.318 10.5009 13.22C10.7059 13.021 10.7098 12.695 10.5118 12.49L7.53284 9.427C7.71484 9.439 7.89187 9.44604 8.06287 9.44604C9.40787 9.44604 10.4259 9.07704 11.1049 8.34204C11.3789 8.04504 11.5738 7.71314 11.7098 7.36914H13.0698C13.3548 7.36914 13.5869 7.13805 13.5869 6.85205C13.5869 6.56605 13.3558 6.33594 13.0698 6.33594H11.9619C12.0359 5.69594 11.9759 5.09909 11.9069 4.69409H13.0698C13.3548 4.69409 13.5869 4.463 13.5869 4.177C13.5869 3.893 13.3558 3.66113 13.0698 3.66113H6.34985C6.06485 3.66113 5.83289 3.892 5.83289 4.177C5.83289 4.462 6.06385 4.69409 6.34985 4.69409H10.8549C10.9209 5.02609 11.0148 5.67594 10.9178 6.33594H6.35083C6.06583 6.33594 5.83386 6.56605 5.83386 6.85205C5.83386 7.13805 6.06483 7.36914 6.35083 7.36914H10.5559C10.4939 7.46614 10.4238 7.55714 10.3468 7.64014C9.6228 8.42314 8.24485 8.61503 6.25085 8.20703C5.97185 8.15003 5.69882 8.33013 5.64282 8.60913C5.63482 8.64913 5.63181 8.68805 5.63281 8.72705C5.62981 8.79505 5.64187 8.86495 5.66687 8.92896C5.69187 8.99296 5.73091 9.055 5.77991 9.104Z" fill="#3A3490"/>
</svg>
