<svg width="24" height="26" viewBox="0 0 24 26" fill="none" xmlns="http://www.w3.org/2000/svg">
<path d="M19.674 11.5171L17.061 14.417L15.927 13.1501C15.839 13.0521 15.72 12.998 15.595 12.998C15.471 12.998 15.3519 13.0531 15.2639 13.1501C15.1759 13.2471 15.127 13.3801 15.127 13.5181C15.127 13.6561 15.177 13.789 15.265 13.886L16.7369 15.52C16.8249 15.618 16.944 15.6721 17.068 15.6721C17.192 15.6721 17.3109 15.617 17.3989 15.52L20.344 12.251C20.389 12.202 20.424 12.146 20.448 12.082C20.473 12.019 20.486 11.9501 20.486 11.8811C20.487 11.8121 20.475 11.7429 20.452 11.6799C20.429 11.6169 20.393 11.558 20.349 11.509C20.305 11.46 20.2519 11.421 20.1949 11.396C20.1369 11.37 20.0759 11.3569 20.0139 11.3569C19.9509 11.3579 19.89 11.3731 19.832 11.4001C19.775 11.4261 19.724 11.4661 19.681 11.5161L19.674 11.5171Z" fill="#3A3490"/>
<path d="M17.7999 18.718C16.8739 18.718 15.968 18.413 15.198 17.842C14.427 17.271 13.8269 16.4581 13.4719 15.5081C13.1169 14.5581 13.025 13.5122 13.205 12.5042C13.386 11.4952 13.8319 10.5681 14.4869 9.84106C15.1419 9.11406 15.976 8.61897 16.885 8.41797C17.793 8.21697 18.7359 8.32011 19.5909 8.71411C20.4459 9.10811 21.179 9.77415 21.693 10.6292C22.209 11.4841 22.483 12.4891 22.483 13.5181C22.481 14.8971 21.988 16.2191 21.109 17.1941C20.232 18.1681 19.0419 18.717 17.7999 18.718ZM17.7999 21.8381H3.74792V1.03809H14.053V4.67798C14.053 4.81698 14.1029 4.94914 14.1909 5.04614C14.2789 5.14314 14.398 5.198 14.522 5.198H17.7999V7.27808C16.3099 7.27808 14.88 7.93498 13.825 9.10498C12.771 10.275 12.179 11.8631 12.179 13.5171C12.179 15.1721 12.771 16.7589 13.825 17.9299C14.88 19.0999 16.3089 19.7571 17.7999 19.7571V21.8381ZM15.927 24.958H0.937988V4.15796H2.81201V22.3582C2.81201 22.4962 2.86097 22.6281 2.94897 22.7251C3.03697 22.8221 3.15601 22.877 3.28101 22.877H15.927V24.958ZM14.99 1.77295L17.137 4.15796H14.99V1.77295ZM23.421 13.5181C23.419 12.0451 22.947 10.6211 22.09 9.49609C21.234 8.37209 20.0449 7.61907 18.7369 7.37207V4.67896C18.7369 4.61096 18.725 4.54298 18.702 4.47998C18.679 4.41698 18.643 4.36003 18.6 4.31104L14.8519 0.1521C14.8089 0.1031 14.7569 0.0650625 14.7009 0.0390625C14.6429 0.0140625 14.583 0 14.521 0H3.28003C3.15503 0 3.036 0.0550996 2.948 0.1521C2.86 0.2491 2.81104 0.381043 2.81104 0.519043V3.12012H0.468994C0.343994 3.12012 0.224963 3.17497 0.136963 3.27197C0.0489629 3.36897 0 3.50116 0 3.63916V25.48C0 25.618 0.0489629 25.7502 0.136963 25.8472C0.224963 25.9442 0.343994 25.999 0.468994 25.999H16.395C16.519 25.999 16.638 25.9442 16.726 25.8472C16.814 25.7502 16.863 25.618 16.863 25.48V22.8792H18.2679C18.3919 22.8792 18.511 22.8241 18.599 22.7271C18.687 22.6301 18.7369 22.4981 18.7369 22.3601V19.666C20.0449 19.42 21.233 18.668 22.09 17.543C22.947 16.416 23.419 14.9911 23.421 13.5181Z" fill="#3A3490"/>
<path d="M8.9002 9.35815H6.08916C5.96516 9.35815 5.84611 9.41301 5.75811 9.51001C5.67011 9.60701 5.62115 9.73895 5.62115 9.87695C5.62115 10.015 5.67011 10.1481 5.75811 10.2451C5.84611 10.3421 5.96516 10.397 6.08916 10.397H8.9002C9.0242 10.397 9.14313 10.3421 9.23113 10.2451C9.31913 10.1481 9.36919 10.015 9.36919 9.87695C9.36919 9.73895 9.31913 9.60601 9.23113 9.51001C9.14413 9.41301 9.0242 9.35815 8.9002 9.35815ZM11.7111 6.23804H6.09014C5.96614 6.23804 5.84721 6.29314 5.75921 6.39014C5.67121 6.48714 5.62212 6.61908 5.62212 6.75708C5.62212 6.89608 5.67121 7.028 5.75921 7.125C5.84721 7.222 5.96614 7.2771 6.09014 7.2771H11.7111C11.8351 7.2771 11.9542 7.222 12.0422 7.125C12.1302 7.028 12.1801 6.89608 12.1801 6.75708C12.1801 6.61908 12.1302 6.48714 12.0422 6.39014C11.9542 6.29314 11.8351 6.23804 11.7111 6.23804ZM6.09014 4.15796H11.7111C11.8351 4.15796 11.9542 4.1031 12.0422 4.0061C12.1302 3.9091 12.1801 3.77716 12.1801 3.63916C12.1801 3.50016 12.1302 3.368 12.0422 3.271C11.9542 3.174 11.8351 3.11914 11.7111 3.11914H6.09014C5.96614 3.11914 5.84721 3.174 5.75921 3.271C5.67121 3.368 5.62212 3.50016 5.62212 3.63916C5.62212 3.77716 5.67121 3.9091 5.75921 4.0061C5.84721 4.1031 5.96614 4.15796 6.09014 4.15796ZM8.43316 16.79L6.98211 18.406L6.4201 17.782C6.3761 17.734 6.32512 17.6949 6.26812 17.6689C6.21112 17.6429 6.15116 17.6302 6.08916 17.6292C6.02716 17.6292 5.96611 17.6429 5.90911 17.6689C5.85211 17.6949 5.80113 17.733 5.75713 17.781C5.71413 17.83 5.6792 17.886 5.6552 17.95C5.6312 18.014 5.62017 18.0809 5.62017 18.1489C5.61917 18.2169 5.6322 18.2851 5.6552 18.3481C5.6782 18.4111 5.71313 18.4681 5.75713 18.5171L6.6502 19.5071C6.7382 19.6051 6.85713 19.6589 6.98113 19.6589C7.10513 19.6589 7.22419 19.6041 7.31219 19.5071L9.0971 17.53C9.1851 17.432 9.23418 17.3011 9.23418 17.1631C9.23418 17.0241 9.1851 16.8922 9.0971 16.7952C9.0091 16.6982 8.89017 16.6421 8.76617 16.6421C8.64217 16.6421 8.52314 16.6969 8.43414 16.7939L8.43316 16.79ZM8.43316 12.6301L6.98211 14.2461L6.4201 13.6221C6.3321 13.5241 6.21316 13.47 6.08916 13.47C5.96416 13.47 5.84513 13.5251 5.75713 13.6211C5.66913 13.7191 5.62017 13.851 5.62017 13.989C5.61917 14.127 5.66913 14.2599 5.75713 14.3569L6.6502 15.3472C6.7382 15.4452 6.85713 15.499 6.98113 15.499C7.10513 15.499 7.22419 15.4442 7.31219 15.3472L9.0971 13.3701C9.1851 13.2721 9.23418 13.1409 9.23418 13.0029C9.23418 12.8639 9.1851 12.732 9.0971 12.635C9.0091 12.538 8.89017 12.4832 8.76617 12.4832C8.64217 12.4822 8.52314 12.537 8.43414 12.634L8.43316 12.6301Z" fill="#3A3490"/>
</svg>
