<svg width="26" height="26" viewBox="0 0 26 26" fill="none" xmlns="http://www.w3.org/2000/svg">
<path d="M18.2785 17.3799C18.2795 18.6449 17.8255 19.867 16.9995 20.824C16.4555 19.766 15.5155 18.9659 14.3845 18.5959C14.8085 18.2999 15.1275 17.875 15.2945 17.385C15.4615 16.896 15.4675 16.3641 15.3125 15.8701C15.1575 15.3761 14.8485 14.9449 14.4315 14.6389C14.0135 14.3319 13.5095 14.167 12.9925 14.167C12.4745 14.166 11.9705 14.3309 11.5535 14.6379C11.1355 14.9439 10.8255 15.3749 10.6705 15.8679C10.5155 16.3619 10.5205 16.8921 10.6875 17.3831C10.8545 17.8741 11.1724 18.298 11.5964 18.595C11.0354 18.776 10.5165 19.066 10.0675 19.449C9.61946 19.832 9.25147 20.299 8.98347 20.825C8.42747 20.178 8.03646 19.4059 7.84346 18.5759C7.65046 17.7459 7.66049 16.8809 7.87349 16.0549C8.08749 15.2299 8.49649 14.468 9.06849 13.835C9.63949 13.202 10.3555 12.7159 11.1555 12.4199C11.9545 12.1239 12.8135 12.0251 13.6595 12.1331C14.5065 12.2401 15.3125 12.5511 16.0135 13.0381C16.7125 13.5251 17.2845 14.1749 17.6795 14.9309C18.0745 15.6869 18.2785 16.5269 18.2785 17.3799ZM11.3695 16.604C11.3695 16.283 11.4645 15.9689 11.6425 15.7029C11.8205 15.4359 12.0735 15.229 12.3705 15.106C12.6665 14.983 12.9925 14.9509 13.3075 15.0129C13.6225 15.0749 13.9115 15.231 14.1375 15.457C14.3635 15.683 14.5185 15.9731 14.5805 16.2871C14.6425 16.6011 14.6115 16.9281 14.4885 17.2241C14.3655 17.5201 14.1575 17.7739 13.8905 17.9519C13.6235 18.1299 13.3105 18.2251 12.9905 18.2251C12.5605 18.2241 12.1485 18.053 11.8445 17.749C11.5405 17.445 11.3695 17.033 11.3695 16.604ZM12.9905 22.668C11.7485 22.669 10.5455 22.2299 9.59449 21.4299C9.87649 20.7639 10.3495 20.1961 10.9535 19.7971C11.5575 19.3991 12.2665 19.1869 12.9895 19.1899C13.7125 19.1929 14.4185 19.407 15.0215 19.804C15.6245 20.201 16.0985 20.7669 16.3845 21.4299C15.4365 22.2299 14.2335 22.669 12.9905 22.668ZM6.89045 17.3799C6.89045 18.5859 7.24747 19.766 7.91847 20.77C8.58847 21.773 9.54147 22.5551 10.6555 23.0161C11.7705 23.4781 12.9975 23.599 14.1805 23.364C15.3635 23.129 16.4515 22.5481 17.3035 21.6941C18.1575 20.8401 18.7385 19.754 18.9735 18.571C19.2085 17.387 19.0885 16.1609 18.6265 15.0459C18.1645 13.9309 17.3825 12.9791 16.3795 12.3081C15.3755 11.6381 14.1965 11.281 12.9895 11.281C11.3725 11.283 9.8215 11.9261 8.6775 13.0701C7.5355 14.2111 6.89245 15.7619 6.89045 17.3799ZM24.7275 9.552C24.9595 9.727 25.1135 9.98693 25.1575 10.2739C25.2005 10.5619 25.1305 10.8551 24.9605 11.0901L24.9235 11.1411C24.8365 11.2601 24.7275 11.362 24.6015 11.438C24.4755 11.514 24.3355 11.5649 24.1905 11.5859C24.0455 11.6069 23.8965 11.6 23.7535 11.564C23.6105 11.528 23.4774 11.463 23.3594 11.376L13.6265 4.04395C13.4445 3.90495 13.2215 3.83008 12.9915 3.83008C12.7615 3.83008 12.5395 3.90495 12.3565 4.04395L2.62446 11.376C2.50846 11.468 2.37448 11.5331 2.23048 11.5691C2.08748 11.6051 1.93849 11.6119 1.79249 11.5869C1.64649 11.5679 1.50549 11.5189 1.37849 11.4419C1.25249 11.3659 1.1445 11.2631 1.0605 11.1421L1.02345 11.0901C0.853449 10.8551 0.782451 10.5619 0.825451 10.2739C0.869451 9.98693 1.0225 9.727 1.2555 9.552L12.8464 0.864014C12.8874 0.831014 12.9395 0.812988 12.9925 0.812988C13.0455 0.812988 13.0965 0.831014 13.1385 0.864014L24.7275 9.552ZM22.4625 24.2339C22.4615 24.4869 22.3605 24.729 22.1835 24.908C22.0045 25.087 21.7615 25.187 21.5095 25.187H4.47248C4.22048 25.187 3.97845 25.086 3.79945 24.908C3.62045 24.73 3.52046 24.4869 3.52046 24.2339V11.7161L12.8445 4.69189C12.8865 4.65889 12.9385 4.64111 12.9905 4.64111C13.0425 4.64111 13.0945 4.65889 13.1365 4.69189L22.4615 11.7161L22.4625 24.2339ZM20.3215 2.08008H22.4625V6.83789L20.3215 5.23389V2.08008ZM22.6515 1.26807H20.1315C19.9665 1.26907 19.8075 1.3339 19.6915 1.4519C19.5745 1.5679 19.5085 1.72611 19.5085 1.89111V4.625L13.6224 0.212891C13.4404 0.0748906 13.2185 0 12.9895 0C12.7605 0 12.5385 0.0748906 12.3565 0.212891L0.765453 8.90088C0.363453 9.20488 0.0964958 9.6541 0.0214958 10.1521C-0.0535042 10.6501 0.0694758 11.1579 0.363476 11.5669L0.400463 11.6189C0.548463 11.8259 0.738493 12.002 0.956493 12.135C1.17549 12.268 1.41846 12.3539 1.67146 12.3899C2.02246 12.4449 2.38049 12.4 2.70649 12.26V24.2351C2.70649 24.7041 2.8935 25.1519 3.2245 25.4829C3.5555 25.8139 4.00345 26.001 4.47145 26.001H21.5085C21.9765 26.001 22.4255 25.8139 22.7565 25.4829C23.0865 25.1519 23.2735 24.7041 23.2745 24.2351V12.261C23.5065 12.362 23.7575 12.4121 24.0115 12.4121C24.1115 12.4121 24.2105 12.4039 24.3085 12.3899C24.5615 12.3539 24.8044 12.268 25.0234 12.135C25.2414 12.002 25.4305 11.8259 25.5795 11.6179L25.6165 11.5669C25.9105 11.1589 26.0334 10.6511 25.9584 10.1521C25.8834 9.6541 25.6165 9.20488 25.2145 8.90088L23.2755 7.44702V1.88989C23.2755 1.72489 23.2095 1.56693 23.0925 1.45093C22.9755 1.33393 22.8165 1.26907 22.6515 1.26807Z" fill="#3A3490"/>
</svg>
